<?xml version="1.0" encoding="UTF-8"?>
<svg id="Layer_2" xmlns="http://www.w3.org/2000/svg" viewBox="0 0 73.02 91.24">
  <defs>
    <style>
      .cls-1 {
        fill-rule: evenodd;
      }
    </style>
  </defs>
  <g id="Layer_2-2" data-name="Layer_2">
    <g id="Layer_1-2">
      <path class="cls-1" d="M36.51,56.72c-.26,0-.53-.09-.74-.27-6.36-5.29-12.36-10.29-12.36-15.81,0-3.38,3.2-6.13,7.13-6.13,2.9,0,4.61,1.08,5.97,2.82,1.36-1.74,3.08-2.82,5.97-2.82,3.93,0,7.13,2.75,7.13,6.13,0,5.52-6,10.51-12.36,15.81-.22.18-.48.27-.74.27h0Z"/>
      <path class="cls-1" d="M46.04,87.33c-.1,0-.19-.01-.29-.04l-20.51-5.23-11.21-19.41c4.56-3.34,4.97-3.43,5.3-3.51,4.49-1.01,23.97,4.39,29.78,8.26.77.51,1.33,1.12,1.71,1.76l12.72-9.08c2.11-1.51,4.44-1.86,6.39-.96,1.73.8,2.9,2.48,3.06,4.4.18,2.12-.89,4.15-2.94,5.57l-23.31,17.99c-.2.16-.45.24-.71.24h.01Z"/>
      <path class="cls-1" d="M14.29,91.24c-.4,0-.79-.21-1-.58L.16,67.92c-.15-.27-.2-.58-.12-.88s.27-.55.54-.7l8.68-5.01c.55-.32,1.26-.13,1.58.42l13.13,22.74c.15.27.2.58.12.88s-.27.55-.54.7l-8.68,5.01c-.18.11-.38.16-.58.16h0ZM7,70.93c-.41,0-.81-.22-1.02-.61-.31-.56-.1-1.27.47-1.57l1.97-1.07c.56-.31,1.27-.1,1.57.47.31.56.1,1.27-.47,1.57l-1.97,1.07c-.18.1-.36.14-.55.14h0Z"/>
      <path class="cls-1" d="M52.26,32.22c-6.22,0-23.04-4.84-28.36-8.39-.77-.51-1.33-1.12-1.71-1.76l-12.72,9.08c-1.34.96-2.77,1.45-4.13,1.45-.78,0-1.55-.16-2.26-.49C1.35,31.31.18,29.63.02,27.71c-.18-2.12.89-4.15,2.94-5.57L26.27,4.15c.28-.22.65-.29.99-.21l20.51,5.23,11.21,19.42c-4.56,3.34-4.96,3.43-5.3,3.51-.37.08-.85.12-1.42.12h0Z"/>
      <path class="cls-1" d="M63.18,30.07c-.4,0-.79-.21-1-.58l-13.13-22.74c-.32-.55-.13-1.26.42-1.58L58.15.16c.27-.15.58-.2.88-.12.3.08.55.27.7.54l13.13,22.74c.15.27.2.58.12.88-.08.3-.27.55-.54.7l-8.68,5.01c-.18.1-.38.16-.58.16h0ZM64.05,23.69c-.41,0-.81-.22-1.02-.61-.31-.56-.1-1.27.47-1.57l1.97-1.07c.56-.31,1.27-.1,1.57.47.3.56.1,1.27-.47,1.57l-1.97,1.07c-.18.1-.36.14-.55.14h0Z"/>
    </g>
  </g>
</svg>